<svg width="39" height="139" viewBox="0 0 39 139" fill="none" xmlns="http://www.w3.org/2000/svg">
<g filter="url(#filter0_b_31_413)">
<path d="M0.432505 10.7364L0.440107 12.3549C5.29663 12.5345 12.5857 13.7141 12.6142 19.7836L13.0997 123.167C13.114 126.202 12.3199 129.442 10.7128 131.878C8.90527 134.719 6.28277 136.35 2.84436 136.568L1.02352 136.577L1.03112 138.195L38.0549 138.021L38.0473 136.403L37.0357 136.408C32.9894 136.427 30.1484 134.619 28.111 131.594C26.6834 129.173 25.8608 126.344 25.8475 123.512L25.2679 0.0991449L23.6494 0.106746C23.0899 10.2254 11.1552 10.6861 3.06261 10.7241L0.432505 10.7364Z" fill="url(#paint0_linear_31_413)" fill-opacity="0.8"/>
<path d="M0.432505 10.7364L0.431169 10.4518L0.14654 10.4531L0.147877 10.7378L0.432505 10.7364ZM0.440107 12.3549L0.155478 12.3563L0.156761 12.6293L0.429594 12.6394L0.440107 12.3549ZM10.7128 131.878L10.4752 131.721L10.4727 131.725L10.7128 131.878ZM2.84436 136.568L2.8457 136.853L2.85406 136.853L2.86241 136.852L2.84436 136.568ZM1.02352 136.577L1.02218 136.292L0.737554 136.293L0.738891 136.578L1.02352 136.577ZM1.03112 138.195L0.746492 138.197L0.747829 138.481L1.03246 138.48L1.03112 138.195ZM38.0549 138.021L38.0562 138.306L38.3408 138.305L38.3395 138.02L38.0549 138.021ZM38.0473 136.403L38.3319 136.401L38.3305 136.117L38.0459 136.118L38.0473 136.403ZM28.111 131.594L27.8658 131.738L27.8701 131.746L27.8749 131.753L28.111 131.594ZM25.2679 0.0991444L25.5525 0.0978077L25.5512 -0.186821L25.2666 -0.185484L25.2679 0.0991444ZM23.6494 0.106746L23.648 -0.177883L23.38 -0.176624L23.3652 0.0910345L23.6494 0.106746ZM0.147877 10.7378L0.155478 12.3563L0.724735 12.3536L0.717134 10.7351L0.147877 10.7378ZM0.429594 12.6394C2.84828 12.7288 5.84041 13.0673 8.22252 14.1209C9.41087 14.6464 10.4333 15.3439 11.1595 16.2639C11.8823 17.1796 12.3227 18.3293 12.3296 19.7849L12.8988 19.7823C12.8914 18.2032 12.41 16.9294 11.6063 15.9112C10.806 14.8974 9.69733 14.1507 8.45279 13.6002C5.96911 12.5017 2.88845 12.1606 0.45062 12.0705L0.429594 12.6394ZM12.3296 19.7849L12.8151 123.168L13.3844 123.165L12.8988 19.7823L12.3296 19.7849ZM12.8151 123.168C12.8292 126.159 12.0453 129.342 10.4752 131.721L10.9504 132.035C12.5945 129.543 13.3988 126.244 13.3844 123.165L12.8151 123.168ZM10.4727 131.725C8.71198 134.492 6.1704 136.072 2.82631 136.284L2.86241 136.852C6.39514 136.628 9.09856 134.945 10.953 132.031L10.4727 131.725ZM2.84302 136.283L1.02218 136.292L1.02486 136.861L2.8457 136.853L2.84302 136.283ZM0.738891 136.578L0.746492 138.197L1.31575 138.194L1.30815 136.575L0.738891 136.578ZM1.03246 138.48L38.0562 138.306L38.0535 137.737L1.02978 137.911L1.03246 138.48ZM38.3395 138.02L38.3319 136.401L37.7626 136.404L37.7702 138.023L38.3395 138.02ZM38.0459 136.118L37.0343 136.123L37.037 136.692L38.0486 136.687L38.0459 136.118ZM37.0343 136.123C33.0941 136.141 30.3377 134.391 28.3471 131.435L27.8749 131.753C29.9591 134.847 32.8847 136.712 37.037 136.692L37.0343 136.123ZM28.3562 131.449C26.9528 129.069 26.1452 126.29 26.1321 123.51L25.5629 123.513C25.5764 126.398 26.414 129.276 27.8658 131.738L28.3562 131.449ZM26.1321 123.51L25.5525 0.0978077L24.9833 0.100481L25.5629 123.513L26.1321 123.51ZM25.2666 -0.185484L23.648 -0.177883L23.6507 0.391374L25.2692 0.383773L25.2666 -0.185484ZM23.3652 0.0910345C23.2287 2.56039 22.4008 4.42336 21.1234 5.83843C19.842 7.25802 18.0925 8.24378 16.0892 8.92621C12.0742 10.2938 7.11255 10.4204 3.06127 10.4394L3.06394 11.0087C7.10528 10.9897 12.1573 10.8669 16.2727 9.46507C18.3345 8.76275 20.1794 7.73372 21.546 6.21988C22.9166 4.70152 23.7904 2.71242 23.9336 0.122459L23.3652 0.0910345ZM3.06127 10.4394L0.431169 10.4518L0.433842 11.021L3.06394 11.0087L3.06127 10.4394Z" fill="white" fill-opacity="0.5"/>
</g>
<defs>
<filter id="filter0_b_31_413" x="-3.60154" y="-3.94271" width="45.6411" height="146.123" filterUnits="userSpaceOnUse" color-interpolation-filters="sRGB">
<feFlood flood-opacity="0" result="BackgroundImageFix"/>
<feGaussianBlur in="BackgroundImage" stdDeviation="1.99242"/>
<feComposite in2="SourceAlpha" operator="in" result="effect1_backgroundBlur_31_413"/>
<feBlend mode="normal" in="SourceGraphic" in2="effect1_backgroundBlur_31_413" result="shape"/>
</filter>
<linearGradient id="paint0_linear_31_413" x1="-3.8042" y1="-29.784" x2="71.5707" y2="-19.7954" gradientUnits="userSpaceOnUse">
<stop offset="0.00103864" stop-color="white" stop-opacity="0.7"/>
<stop offset="1" stop-color="white" stop-opacity="0.2"/>
</linearGradient>
</defs>
</svg>
