<svg width="134" height="487" viewBox="0 0 134 487" fill="none" xmlns="http://www.w3.org/2000/svg">
<g filter="url(#filter0_b_24_29)">
<path d="M0.888456 38.5637L0.915162 44.2501C17.9776 44.8807 43.5864 49.0254 43.6865 70.3493L45.3924 433.567C45.4425 444.229 42.6527 455.615 37.0064 464.171C30.6559 474.152 21.4423 479.882 9.36205 480.65L2.96487 480.68L2.99158 486.366L133.068 485.755L133.041 480.069L129.487 480.086C115.271 480.152 105.29 473.802 98.1316 463.173C93.116 454.667 90.2261 444.729 90.1793 434.778L88.143 1.1916L82.4566 1.21831C80.4911 36.7682 38.5607 38.3867 10.1288 38.5203L0.888456 38.5637Z" fill="url(#paint0_linear_24_29)" fill-opacity="0.8"/>
<path d="M0.888455 38.5637L0.883759 37.5637L-0.11623 37.5684L-0.111534 38.5684L0.888455 38.5637ZM0.915162 44.2501L-0.0848273 44.2548L-0.0803224 45.214L0.878225 45.2494L0.915162 44.2501ZM37.0064 464.171L36.1717 463.62L36.1671 463.627L36.1627 463.634L37.0064 464.171ZM9.36205 480.65L9.36675 481.65L9.39613 481.65L9.42546 481.648L9.36205 480.65ZM2.96487 480.68L2.96017 479.68L1.96019 479.685L1.96488 480.685L2.96487 480.68ZM2.99158 486.366L1.99159 486.371L1.99629 487.371L2.99627 487.366L2.99158 486.366ZM133.068 485.755L133.072 486.755L134.072 486.751L134.068 485.751L133.068 485.755ZM133.041 480.069L134.041 480.064L134.036 479.064L133.036 479.069L133.041 480.069ZM98.1316 463.173L97.2702 463.681L97.2855 463.707L97.3022 463.732L98.1316 463.173ZM88.143 1.1916L89.143 1.18691L89.1383 0.186919L88.1383 0.191615L88.143 1.1916ZM82.4566 1.21831L82.4519 0.218321L81.5101 0.222745L81.4581 1.1631L82.4566 1.21831ZM-0.111534 38.5684L-0.0848273 44.2548L1.91515 44.2454L1.88844 38.559L-0.111534 38.5684ZM0.878225 45.2494C9.37583 45.5635 19.8881 46.7527 28.2572 50.4543C32.4323 52.3008 36.0244 54.7514 38.5757 57.9835C41.1151 61.2005 42.6625 65.24 42.6865 70.354L44.6865 70.3446C44.6605 64.7967 42.9693 60.3215 40.1456 56.7444C37.3339 53.1824 33.4387 50.5591 29.0662 48.6252C20.3403 44.7658 9.51698 43.5673 0.9521 43.2508L0.878225 45.2494ZM42.6865 70.354L44.3924 433.572L46.3924 433.562L44.6865 70.3446L42.6865 70.354ZM44.3924 433.572C44.4418 444.079 41.688 455.261 36.1717 463.62L37.841 464.722C43.6174 455.969 46.4432 444.379 46.3924 433.562L44.3924 433.572ZM36.1627 463.634C29.9769 473.357 21.0475 478.905 9.29864 479.652L9.42546 481.648C21.8371 480.859 31.335 474.948 37.8501 464.708L36.1627 463.634ZM9.35735 479.65L2.96017 479.68L2.96957 481.68L9.36675 481.65L9.35735 479.65ZM1.96488 480.685L1.99159 486.371L3.99157 486.362L3.96486 480.675L1.96488 480.685ZM2.99627 487.366L133.072 486.755L133.063 484.755L2.98688 485.366L2.99627 487.366ZM134.068 485.751L134.041 480.064L132.041 480.074L132.068 485.76L134.068 485.751ZM133.036 479.069L129.482 479.086L129.492 481.086L133.046 481.069L133.036 479.069ZM129.482 479.086C115.639 479.151 105.955 472.999 98.9611 462.615L97.3022 463.732C104.625 474.605 114.903 481.154 129.492 481.086L129.482 479.086ZM98.9931 462.665C94.0624 454.303 91.2252 444.538 91.1793 434.774L89.1793 434.783C89.227 444.921 92.1696 455.031 97.2702 463.681L98.9931 462.665ZM91.1793 434.774L89.143 1.18691L87.143 1.1963L89.1793 434.783L91.1793 434.774ZM88.1383 0.191615L82.4519 0.218321L82.4613 2.2183L88.1477 2.19159L88.1383 0.191615ZM81.4581 1.1631C80.9785 9.83872 78.07 16.3839 73.5821 21.3555C69.08 26.343 62.9337 29.8063 55.8952 32.2038C41.7894 37.0088 24.3576 37.4534 10.1241 37.5203L10.1335 39.5203C24.332 39.4536 42.0813 39.0222 56.5401 34.097C63.7838 31.6295 70.2657 28.0142 75.0667 22.6956C79.8821 17.3612 82.952 10.3728 83.4551 1.27351L81.4581 1.1631ZM10.1241 37.5203L0.883759 37.5637L0.893152 39.5637L10.1335 39.5203L10.1241 37.5203Z" fill="white" fill-opacity="0.5"/>
</g>
<defs>
<filter id="filter0_b_24_29" x="-13.2852" y="-13.0087" width="160.353" height="513.375" filterUnits="userSpaceOnUse" color-interpolation-filters="sRGB">
<feFlood flood-opacity="0" result="BackgroundImageFix"/>
<feGaussianBlur in="BackgroundImage" stdDeviation="7"/>
<feComposite in2="SourceAlpha" operator="in" result="effect1_backgroundBlur_24_29"/>
<feBlend mode="normal" in="SourceGraphic" in2="effect1_backgroundBlur_24_29" result="shape"/>
</filter>
<linearGradient id="paint0_linear_24_29" x1="-14" y1="-104.56" x2="246.67" y2="-70.5304" gradientUnits="userSpaceOnUse">
<stop offset="0.00103864" stop-color="white" stop-opacity="0.7"/>
<stop offset="1" stop-color="white" stop-opacity="0.2"/>
</linearGradient>
</defs>
</svg>
