<svg width="80" height="140" viewBox="0 0 80 140" fill="none" xmlns="http://www.w3.org/2000/svg">
<g filter="url(#filter0_b_31_417)">
<path d="M37.6534 91.8968C46.3111 82.9541 55.3735 74.0094 62.6065 63.2525C69.2392 53.9146 73.845 43.777 73.9969 33.0533L73.9922 32.0418C73.8943 11.2033 60.4902 0.340952 39.6517 0.438821C29.7382 0.48538 21.0595 4.97718 14.8201 11.8854C9.38606 17.9805 6.99438 25.6799 5.2144 34.388L6.83292 34.3804C11.4073 17.5663 21.675 6.79517 39.6811 6.7106C49.3923 6.665 56.9093 13.3062 58.5725 22.8075C58.9885 25.2334 59.2022 27.6602 59.2136 30.088C59.2849 45.2616 51.6672 60.2691 42.0226 74.4768C27.1539 96.3972 7.21774 116.318 2.63575 131.514C1.83599 133.541 1.44181 135.768 1.24995 137.994L1.2585 139.815L79.7569 139.447L79.6486 116.383L78.0301 116.39C77.8705 125.495 70.8161 131.193 62.1165 131.234L5.26585 131.501C11.8682 115.689 25.9751 103.889 37.6534 91.8968Z" fill="url(#paint0_linear_31_417)" fill-opacity="0.8"/>
<path d="M37.6534 91.8968L37.8573 92.0954L37.8579 92.0948L37.6534 91.8968ZM62.6065 63.2525L62.3744 63.0876L62.3703 63.0937L62.6065 63.2525ZM73.9969 33.0533L74.2816 33.0574L74.2815 33.052L73.9969 33.0533ZM14.8201 11.8854L14.6088 11.6946L14.6076 11.6959L14.8201 11.8854ZM5.2144 34.388L4.93553 34.331L4.86536 34.6743L5.21573 34.6726L5.2144 34.388ZM6.83292 34.3804L6.83426 34.665L7.05074 34.664L7.10757 34.4551L6.83292 34.3804ZM58.5725 22.8075L58.853 22.7594L58.8528 22.7584L58.5725 22.8075ZM42.0226 74.4768L41.7871 74.3169L41.787 74.317L42.0226 74.4768ZM2.63575 131.514L2.90052 131.618L2.90485 131.607L2.90826 131.596L2.63575 131.514ZM1.24995 137.994L0.966369 137.97L0.965261 137.983L0.965321 137.996L1.24995 137.994ZM1.2585 139.815L0.973873 139.817L0.97521 140.101L1.25984 140.1L1.2585 139.815ZM79.7569 139.447L79.7582 139.731L80.0429 139.73L80.0415 139.445L79.7569 139.447ZM79.6486 116.383L79.9332 116.381L79.9319 116.097L79.6472 116.098L79.6486 116.383ZM78.0301 116.39L78.0287 116.106L77.7503 116.107L77.7455 116.385L78.0301 116.39ZM5.26585 131.501L5.0032 131.392L4.83772 131.788L5.26719 131.786L5.26585 131.501ZM37.8579 92.0948C46.5083 83.1597 55.5923 74.1942 62.8427 63.4113L62.3703 63.0937C55.1548 73.8247 46.114 82.7485 37.4489 91.6988L37.8579 92.0948ZM62.8386 63.4173C69.4891 54.0544 74.1284 43.8608 74.2815 33.0574L73.7123 33.0493C73.5615 43.6932 68.9893 53.7749 62.3745 63.0877L62.8386 63.4173ZM74.2815 33.052L74.2768 32.0404L73.7075 32.0431L73.7123 33.0547L74.2815 33.052ZM74.2768 32.0404C74.2276 21.5578 70.8291 13.5489 64.7888 8.17648C58.7531 2.80821 50.1165 0.105037 39.6503 0.154192L39.653 0.723449C50.0254 0.674735 58.51 3.3538 64.4105 8.60184C70.3063 13.8457 73.6589 21.6873 73.7075 32.0431L74.2768 32.0404ZM39.6503 0.154192C29.6473 0.201171 20.8953 4.73442 14.6088 11.6946L15.0313 12.0761C21.2238 5.21994 29.8291 0.769588 39.653 0.723449L39.6503 0.154192ZM14.6076 11.6959C9.12115 17.8499 6.71766 25.6124 4.93553 34.331L5.49326 34.445C7.2711 25.7474 9.65096 18.1111 15.0325 12.0748L14.6076 11.6959ZM5.21573 34.6726L6.83426 34.665L6.83158 34.0958L5.21306 34.1034L5.21573 34.6726ZM7.10757 34.4551C9.38525 26.0831 13.0733 19.242 18.4096 14.4844C23.7411 9.7309 30.7402 7.03723 39.6825 6.99523L39.6798 6.42598C30.616 6.46854 23.4781 9.20275 18.0307 14.0595C12.588 18.9121 8.85499 25.8637 6.55827 34.3057L7.10757 34.4551ZM39.6825 6.99523C49.2477 6.95031 56.6516 13.4849 58.2921 22.8566L58.8528 22.7584C57.167 13.1276 49.5368 6.37968 39.6798 6.42598L39.6825 6.99523ZM58.2919 22.8556C58.7054 25.2662 58.9177 27.6774 58.929 30.0893L59.4983 30.0866C59.4868 27.643 59.2717 25.2005 58.853 22.7594L58.2919 22.8556ZM58.929 30.0893C58.9998 45.1723 51.4253 60.1187 41.7871 74.3169L42.2581 74.6366C51.9092 60.4195 59.5699 45.351 59.4983 30.0866L58.929 30.0893ZM41.787 74.317C34.3591 85.2678 25.6705 95.712 18.2462 105.343C10.8356 114.957 4.67171 123.776 2.36324 131.432L2.90826 131.596C5.18179 124.056 11.277 115.317 18.6971 105.691C26.1035 96.0827 34.8174 85.6062 42.2581 74.6366L41.787 74.317ZM2.37098 131.409C1.55741 133.471 1.15954 135.728 0.966369 137.97L1.53353 138.019C1.72409 135.808 2.11458 133.61 2.90052 131.618L2.37098 131.409ZM0.965321 137.996L0.973873 139.817L1.54313 139.814L1.53458 137.993L0.965321 137.996ZM1.25984 140.1L79.7582 139.731L79.7556 139.162L1.25716 139.531L1.25984 140.1ZM80.0415 139.445L79.9332 116.381L79.364 116.384L79.4723 139.448L80.0415 139.445ZM79.6472 116.098L78.0287 116.106L78.0314 116.675L79.6499 116.667L79.6472 116.098ZM77.7455 116.385C77.5891 125.31 70.6868 130.909 62.1152 130.95L62.1178 131.519C70.9453 131.477 78.1519 125.681 78.3147 116.395L77.7455 116.385ZM62.1152 130.95L5.26452 131.217L5.26719 131.786L62.1178 131.519L62.1152 130.95ZM5.52851 131.611C8.81198 123.747 13.9656 116.872 19.7672 110.457C25.5765 104.035 32.0015 98.1083 37.8573 92.0954L37.4494 91.6982C31.627 97.677 25.1593 103.647 19.345 110.076C13.523 116.512 8.32202 123.443 5.0032 131.392L5.52851 131.611Z" fill="white" fill-opacity="0.5"/>
</g>
<defs>
<filter id="filter0_b_31_417" x="-3.37986" y="-3.7313" width="87.1215" height="147.531" filterUnits="userSpaceOnUse" color-interpolation-filters="sRGB">
<feFlood flood-opacity="0" result="BackgroundImageFix"/>
<feGaussianBlur in="BackgroundImage" stdDeviation="1.99242"/>
<feComposite in2="SourceAlpha" operator="in" result="effect1_backgroundBlur_31_417"/>
<feBlend mode="normal" in="SourceGraphic" in2="effect1_backgroundBlur_31_417" result="shape"/>
</filter>
<linearGradient id="paint0_linear_31_417" x1="-3.58252" y1="-29.3778" x2="132.564" y2="5.29482" gradientUnits="userSpaceOnUse">
<stop offset="0.00103864" stop-color="white" stop-opacity="0.7"/>
<stop offset="1" stop-color="white" stop-opacity="0.2"/>
</linearGradient>
</defs>
</svg>
