<svg width="77" height="144" viewBox="0 0 77 144" fill="none" xmlns="http://www.w3.org/2000/svg">
<g filter="url(#filter0_b_31_421)">
<path d="M46.3368 131.903C36.6561 138.423 23.5189 141.317 9.76145 141.381C6.92904 141.395 4.29798 141.205 1.46462 141.016L1.2699 142.635C6.12833 143.219 10.9858 143.601 16.0437 143.577C32.0266 143.502 47.7892 139.584 59.2793 130.628C68.148 123.505 74.3713 113.158 75.9233 98.9881C76.1152 96.7617 76.3061 94.333 76.2956 92.1075C76.2633 85.2288 74.8167 78.7614 71.5587 74.3256C67.0793 68.2771 57.1402 62.8611 46.6198 62.9105C45.4059 62.9162 44.3943 62.921 43.1814 63.129C55.2813 54.777 72.2388 46.8069 73.9827 30.4108C74.1793 29.196 74.1736 27.9821 74.1688 26.9705C74.108 14.0223 65.5566 2.53022 47.7452 0.995308C46.7337 1.00006 45.5188 0.803447 44.5072 0.808198C35.6054 0.850006 26.5154 3.92749 20.2702 9.62178C15.2361 14.7034 11.2202 21.1965 8.82852 28.8959L10.447 28.8883C17.8567 12.6679 30.3756 7.34881 41.3006 7.2975L43.1214 7.28895C54.6563 7.84174 60.7799 19.3452 60.8283 29.6633C59.4977 47.8783 49.8245 56.0166 36.1079 64.7807L37.1281 66.5968C39.3507 65.9794 41.3729 65.7676 43.1937 65.7591C59.379 65.6831 63.9135 83.4659 63.9705 95.6048L63.9743 96.4141C63.4481 113.614 56.824 124.772 46.3368 131.903Z" fill="url(#paint0_linear_31_421)" fill-opacity="0.8"/>
<path d="M46.3368 131.903L46.4958 132.139L46.4969 132.138L46.3368 131.903ZM1.46462 141.016L1.48356 140.732L1.21424 140.714L1.18202 140.982L1.46462 141.016ZM1.2699 142.635L0.987307 142.601L0.95333 142.884L1.23593 142.918L1.2699 142.635ZM59.2793 130.628L59.4543 130.853L59.4576 130.85L59.2793 130.628ZM75.9233 98.9882L76.2063 99.0191L76.2069 99.0126L75.9233 98.9882ZM71.5587 74.3256L71.7881 74.1571L71.7875 74.1562L71.5587 74.3256ZM43.1814 63.129L43.0197 62.8947L43.2295 63.4095L43.1814 63.129ZM73.9827 30.4108L73.7017 30.3653L73.7004 30.373L73.6996 30.3807L73.9827 30.4108ZM47.7452 0.995309L47.7697 0.711728L47.7568 0.71062L47.7439 0.71068L47.7452 0.995309ZM20.2702 9.62178L20.0785 9.41146L20.0731 9.41633L20.068 9.42147L20.2702 9.62178ZM8.82852 28.8959L8.5567 28.8115L8.44149 29.1824L8.82986 29.1805L8.82852 28.8959ZM10.447 28.8883L10.4484 29.1729L10.6303 29.1721L10.7059 29.0066L10.447 28.8883ZM43.1214 7.28894L43.1351 7.00464L43.1276 7.00428L43.1201 7.00432L43.1214 7.28894ZM60.8283 29.6633L61.1122 29.684L61.113 29.673L61.113 29.662L60.8283 29.6633ZM36.1079 64.7807L35.9547 64.5409L35.7281 64.6857L35.8598 64.9201L36.1079 64.7807ZM37.1281 66.5968L36.8799 66.7362L36.9892 66.9308L37.2042 66.8711L37.1281 66.5968ZM63.9743 96.4141L64.259 96.4228L64.259 96.4128L63.9743 96.4141ZM46.1779 131.667C36.5601 138.144 23.485 141.032 9.76012 141.097L9.76279 141.666C23.5528 141.601 36.7521 138.701 46.4958 132.139L46.1779 131.667ZM9.76012 141.097C6.9399 141.11 4.31979 140.921 1.48356 140.732L1.44567 141.3C4.27618 141.489 6.91817 141.679 9.76279 141.666L9.76012 141.097ZM1.18202 140.982L0.987307 142.601L1.5525 142.669L1.74721 141.05L1.18202 140.982ZM1.23593 142.918C6.10205 143.503 10.9719 143.886 16.045 143.862L16.0423 143.293C10.9997 143.317 6.1546 142.936 1.30388 142.353L1.23593 142.918ZM16.045 143.862C32.0671 143.787 47.8985 139.86 59.4543 130.853L59.1044 130.404C47.6798 139.309 31.9861 143.218 16.0423 143.293L16.045 143.862ZM59.4576 130.85C68.3859 123.679 74.6461 113.263 76.2062 99.0191L75.6404 98.9572C74.0964 113.053 67.91 123.331 59.1011 130.406L59.4576 130.85ZM76.2069 99.0126C76.3987 96.7867 76.5908 94.3461 76.5802 92.1062L76.011 92.1089C76.0214 94.3198 75.8316 96.7367 75.6397 98.9637L76.2069 99.0126ZM76.5802 92.1062C76.5478 85.1979 75.0963 78.6613 71.7881 74.1571L71.3293 74.4941C74.537 78.8614 75.9788 85.2597 76.011 92.1089L76.5802 92.1062ZM71.7875 74.1562C67.2504 68.0298 57.2232 62.5761 46.6184 62.6259L46.6211 63.1951C57.0572 63.1461 66.9082 68.5243 71.33 74.495L71.7875 74.1562ZM46.6184 62.6259C45.4062 62.6316 44.3725 62.6359 43.1333 62.8484L43.2295 63.4095C44.4162 63.206 45.4056 63.2008 46.6211 63.1951L46.6184 62.6259ZM43.3431 63.3632C49.3609 59.2094 56.6672 55.1003 62.6501 50.0031C68.6478 44.8933 73.3829 38.7409 74.2657 30.4409L73.6996 30.3807C72.8385 38.4768 68.2229 44.5075 62.281 49.5698C56.3242 54.6447 49.1018 58.6966 43.0197 62.8947L43.3431 63.3632ZM74.2636 30.4563C74.4646 29.2147 74.4582 27.978 74.4534 26.9691L73.8842 26.9718C73.889 27.9861 73.894 29.1772 73.7017 30.3653L74.2636 30.4563ZM74.4534 26.9691C74.4227 20.4323 72.2481 14.2506 67.8216 9.50869C63.3941 4.76574 56.7337 1.48421 47.7697 0.711728L47.7208 1.27889C56.5682 2.04132 63.0891 5.27328 67.4054 9.89714C71.7227 14.522 73.8541 20.5605 73.8842 26.9718L74.4534 26.9691ZM47.7439 0.71068C47.2535 0.712983 46.7104 0.666406 46.1507 0.618173C45.5972 0.570475 45.0271 0.521121 44.5059 0.523569L44.5086 1.09283C44.999 1.09052 45.5421 1.1371 46.1018 1.18533C46.6553 1.23303 47.2254 1.28238 47.7466 1.27994L47.7439 0.71068ZM44.5059 0.523569C35.5459 0.56565 26.3842 3.66196 20.0785 9.41146L20.462 9.83211C26.6466 4.19303 35.6648 1.13436 44.5086 1.09283L44.5059 0.523569ZM20.068 9.42147C15.0016 14.5358 10.9619 21.0687 8.5567 28.8115L9.10034 28.9804C11.4785 21.3244 15.4706 14.8711 20.4724 9.8221L20.068 9.42147ZM8.82986 29.1805L10.4484 29.1729L10.4457 28.6037L8.82718 28.6113L8.82986 29.1805ZM10.7059 29.0066C18.0661 12.8944 30.4795 7.63295 41.3019 7.58213L41.2993 7.01287C30.2716 7.06466 17.6473 12.4414 10.1881 28.7701L10.7059 29.0066ZM41.3019 7.58213L43.1228 7.57357L43.1201 7.00432L41.2993 7.01287L41.3019 7.58213ZM43.1078 7.57325C48.7723 7.84471 53.1118 10.8016 56.0495 14.9779C58.9909 19.1595 60.5197 24.5566 60.5437 29.6646L61.113 29.662C61.0885 24.4519 59.5313 18.9382 56.5151 14.6504C53.4951 10.3572 49.0054 7.28596 43.1351 7.00464L43.1078 7.57325ZM60.5445 29.6426C59.883 38.6974 57.151 45.2301 52.8901 50.589C48.6222 55.9565 42.8095 60.161 35.9547 64.5409L36.2612 65.0206C43.1229 60.6363 49.0051 56.3896 53.3356 50.9432C57.6731 45.4881 60.443 38.8442 61.1122 29.684L60.5445 29.6426ZM35.8598 64.9201L36.8799 66.7362L37.3762 66.4574L36.3561 64.6414L35.8598 64.9201ZM37.2042 66.8711C39.3993 66.2613 41.396 66.0521 43.1951 66.0437L43.1924 65.4744C41.3497 65.4831 39.302 65.6975 37.0519 66.3226L37.2042 66.8711ZM43.1951 66.0437C51.1564 66.0063 56.2513 70.3498 59.3789 76.2349C62.5135 82.1334 63.6575 89.5632 63.6859 95.6062L64.2552 95.6035C64.2265 89.5075 63.0748 81.9765 59.8816 75.9678C56.6812 69.9457 51.4162 65.4358 43.1924 65.4744L43.1951 66.0437ZM63.6859 95.6062L63.6897 96.4154L64.259 96.4128L64.2552 95.6035L63.6859 95.6062ZM63.6898 96.4054C63.1661 113.524 56.5808 124.594 46.1768 131.668L46.4969 132.138C57.0672 124.951 63.7302 113.704 64.2588 96.4228L63.6898 96.4054Z" fill="white" fill-opacity="0.5"/>
</g>
<defs>
<filter id="filter0_b_31_421" x="-3.37986" y="-3.32389" width="83.9008" height="150.956" filterUnits="userSpaceOnUse" color-interpolation-filters="sRGB">
<feFlood flood-opacity="0" result="BackgroundImageFix"/>
<feGaussianBlur in="BackgroundImage" stdDeviation="1.99242"/>
<feComposite in2="SourceAlpha" operator="in" result="effect1_backgroundBlur_31_421"/>
<feBlend mode="normal" in="SourceGraphic" in2="effect1_backgroundBlur_31_421" result="shape"/>
</filter>
<linearGradient id="paint0_linear_31_421" x1="-3.58252" y1="-28.9856" x2="128.429" y2="3.45465" gradientUnits="userSpaceOnUse">
<stop offset="0.00103864" stop-color="white" stop-opacity="0.7"/>
<stop offset="1" stop-color="white" stop-opacity="0.2"/>
</linearGradient>
</defs>
</svg>
