<svg width="88" height="139" viewBox="0 0 88 139" fill="none" xmlns="http://www.w3.org/2000/svg">
<g filter="url(#filter0_b_31_425)">
<path d="M60.9748 103.358L61.0679 123.185C61.0821 126.219 60.4904 129.459 58.6809 131.896C57.0757 134.736 54.2509 136.367 50.8125 136.586L49.194 136.594L49.2016 138.212L86.023 138.039L86.0154 136.421L85.2061 136.424C81.1598 136.443 78.1165 134.637 76.2814 131.611C74.6515 129.19 74.0313 126.361 74.018 123.528L73.9229 103.297L87.6804 103.232L87.6728 101.614L73.9153 101.678L73.5989 34.3074L71.7781 34.3159L60.7182 48.7326L60.9671 101.739L5.33039 102.001C28.4931 79.8389 44.5102 43.953 53.0045 0.212016L40.0563 0.272828C37.5906 35.2858 29.0981 79.4314 1.08937 103.639L60.9748 103.358Z" fill="url(#paint0_linear_31_425)" fill-opacity="0.8"/>
<path d="M60.9747 103.358L61.2594 103.356L61.258 103.072L60.9734 103.073L60.9747 103.358ZM58.6809 131.896L58.4524 131.726L58.4419 131.74L58.4332 131.756L58.6809 131.896ZM50.8125 136.586L50.8138 136.871L50.8222 136.871L50.8305 136.87L50.8125 136.586ZM49.194 136.594L49.1926 136.309L48.908 136.31L48.9093 136.595L49.194 136.594ZM49.2016 138.212L48.9169 138.213L48.9183 138.498L49.2029 138.497L49.2016 138.212ZM86.023 138.039L86.0243 138.324L86.3089 138.322L86.3076 138.038L86.023 138.039ZM86.0154 136.421L86.3 136.419L86.2987 136.135L86.014 136.136L86.0154 136.421ZM76.2814 131.611L76.5251 131.463L76.5175 131.452L76.2814 131.611ZM73.9229 103.297L73.9216 103.012L73.637 103.014L73.6383 103.298L73.9229 103.297ZM87.6804 103.232L87.6817 103.517L87.9664 103.516L87.965 103.231L87.6804 103.232ZM87.6728 101.614L87.9574 101.612L87.9561 101.328L87.6715 101.329L87.6728 101.614ZM73.9153 101.678L73.6307 101.68L73.632 101.964L73.9167 101.963L73.9153 101.678ZM73.5989 34.3074L73.8836 34.306L73.8822 34.0214L73.5976 34.0227L73.5989 34.3074ZM71.7781 34.3159L71.7768 34.0313L71.6372 34.0319L71.5523 34.1427L71.7781 34.3159ZM60.7182 48.7326L60.4924 48.5593L60.4331 48.6366L60.4336 48.7339L60.7182 48.7326ZM60.9671 101.739L60.9685 102.024L61.2531 102.023L61.2518 101.738L60.9671 101.739ZM5.33039 102.001L5.13362 101.795L4.61768 102.289L5.33173 102.285L5.33039 102.001ZM53.0045 0.212016L53.2839 0.266276L53.35 -0.0742422L53.0032 -0.0726131L53.0045 0.212016ZM40.0563 0.272827L40.055 -0.0118013L39.7909 -0.0105613L39.7724 0.252833L40.0563 0.272827ZM1.08937 103.639L0.903248 103.424L0.32058 103.927L1.09071 103.924L1.08937 103.639ZM60.6901 103.359L60.7832 123.186L61.3525 123.183L61.2594 103.356L60.6901 103.359ZM60.7832 123.186C60.7974 126.191 60.2097 129.36 58.4524 131.726L58.9094 132.065C60.7711 129.559 61.3669 126.247 61.3525 123.183L60.7832 123.186ZM58.4332 131.756C56.8806 134.502 54.1483 136.089 50.7944 136.302L50.8305 136.87C54.3535 136.646 57.2708 134.969 58.9287 132.036L58.4332 131.756ZM50.8112 136.301L49.1926 136.309L49.1953 136.878L50.8138 136.871L50.8112 136.301ZM48.9093 136.595L48.9169 138.213L49.4862 138.211L49.4786 136.592L48.9093 136.595ZM49.2029 138.497L86.0243 138.324L86.0216 137.755L49.2002 137.927L49.2029 138.497ZM86.3076 138.038L86.3 136.419L85.7308 136.422L85.7384 138.04L86.3076 138.038ZM86.014 136.136L85.2048 136.14L85.2075 136.709L86.0167 136.705L86.014 136.136ZM85.2048 136.14C81.2562 136.158 78.3069 134.402 76.5248 131.463L76.0381 131.758C77.9262 134.872 81.0635 136.729 85.2075 136.709L85.2048 136.14ZM76.5175 131.452C74.9273 129.09 74.3157 126.32 74.3026 123.527L73.7333 123.53C73.7468 126.401 74.3757 129.29 76.0454 131.77L76.5175 131.452ZM74.3026 123.527L74.2076 103.296L73.6383 103.298L73.7333 123.53L74.3026 123.527ZM73.9243 103.582L87.6817 103.517L87.6791 102.948L73.9216 103.012L73.9243 103.582ZM87.965 103.231L87.9574 101.612L87.3882 101.615L87.3958 103.234L87.965 103.231ZM87.6715 101.329L73.914 101.394L73.9167 101.963L87.6741 101.898L87.6715 101.329ZM74.2 101.677L73.8836 34.306L73.3143 34.3087L73.6307 101.68L74.2 101.677ZM73.5976 34.0227L71.7768 34.0313L71.7794 34.6006L73.6003 34.592L73.5976 34.0227ZM71.5523 34.1427L60.4924 48.5593L60.944 48.9058L72.0039 34.4892L71.5523 34.1427ZM60.4336 48.7339L60.6825 101.741L61.2518 101.738L61.0028 48.7312L60.4336 48.7339ZM60.9658 101.455L5.32906 101.716L5.33173 102.285L60.9685 102.024L60.9658 101.455ZM5.52716 102.206C28.7495 79.9875 44.7839 44.0365 53.2839 0.266276L52.7251 0.157755C44.2364 43.8696 28.2367 79.6903 5.13362 101.795L5.52716 102.206ZM53.0032 -0.0726131L40.055 -0.0118013L40.0576 0.557456L53.0058 0.496644L53.0032 -0.0726131ZM39.7724 0.252833C38.5404 17.7469 35.8033 37.5117 29.8805 55.9207C23.9573 74.3312 14.8542 91.3661 0.903248 103.424L1.27549 103.854C15.3333 91.7043 24.4808 74.5626 30.4224 56.0951C36.3645 37.6262 39.1065 17.8116 40.3402 0.292822L39.7724 0.252833ZM1.09071 103.924L60.9761 103.642L60.9734 103.073L1.08803 103.354L1.09071 103.924Z" fill="white" fill-opacity="0.5"/>
</g>
<defs>
<filter id="filter0_b_31_425" x="-3.37986" y="-3.93339" width="95.2085" height="146.355" filterUnits="userSpaceOnUse" color-interpolation-filters="sRGB">
<feFlood flood-opacity="0" result="BackgroundImageFix"/>
<feGaussianBlur in="BackgroundImage" stdDeviation="1.99242"/>
<feComposite in2="SourceAlpha" operator="in" result="effect1_backgroundBlur_31_425"/>
<feBlend mode="normal" in="SourceGraphic" in2="effect1_backgroundBlur_31_425" result="shape"/>
</filter>
<linearGradient id="paint0_linear_31_425" x1="-3.58252" y1="-29.5419" x2="143.315" y2="11.3675" gradientUnits="userSpaceOnUse">
<stop offset="0.00103864" stop-color="white" stop-opacity="0.7"/>
<stop offset="1" stop-color="white" stop-opacity="0.2"/>
</linearGradient>
</defs>
</svg>
