<svg width="91" height="27" viewBox="0 0 91 27" fill="none" xmlns="http://www.w3.org/2000/svg">
<g clip-path="url(#clip0_1227_4160)">
<path d="M36.1745 18.3644C36.1745 19.7038 35.7949 20.7401 35.05 21.4473C34.3653 22.0959 33.3756 22.4389 32.1896 22.4389C31.0036 22.4389 30.0092 22.0947 29.3222 21.445C28.5725 20.7401 28.1918 19.6991 28.193 18.3621V10.2812H25.6602V18.563C25.6602 20.5415 26.3401 22.1746 27.6278 23.2837C28.7771 24.2753 30.397 24.8204 32.1908 24.8216C33.9846 24.8228 35.5975 24.2776 36.7492 23.2872C38.0416 22.1769 38.725 20.545 38.7262 18.5677V10.2812H36.1769L36.1745 18.3644Z" fill="#FCF0D8"/>
<path d="M48.0016 10.008C47.0932 10.0004 46.1929 10.1784 45.3565 10.5309C44.6147 10.8474 43.9584 11.3333 43.441 11.949V10.2865H40.9212L40.9141 24.5543H43.4646V16.5334C43.4646 15.3138 43.8856 14.2729 44.679 13.5245C45.4286 12.8195 46.4645 12.4295 47.5972 12.4295C50.0627 12.4295 51.4769 13.9051 51.4757 16.477V24.5578H54.0108V15.7556C54.0156 12.3179 51.5998 10.0092 48.0016 10.008Z" fill="#FCF0D8"/>
<path d="M67.6995 12.0853C66.471 10.7283 64.7659 10.0139 62.7391 10.0139C58.6514 10.0139 55.5676 13.1944 55.5664 17.4157C55.5652 21.6371 58.6467 24.8351 62.7332 24.8363C64.7706 24.8363 66.4757 24.1314 67.6995 22.772V24.5543H70.2347L70.2382 3.04102H67.7031L67.6995 12.0853ZM66.4721 21.0144C66.0144 21.4717 65.4698 21.8341 64.8699 22.0805C64.27 22.3269 63.6268 22.4523 62.9777 22.4496C62.3286 22.4469 61.6865 22.316 61.0888 22.0646C60.491 21.8131 59.9495 21.4462 59.4957 20.985C58.6254 20.0604 58.1465 18.7927 58.1477 17.4169C58.1489 16.0411 58.6207 14.7816 59.4874 13.8617C60.3731 12.9218 61.6229 12.4001 63.0064 12.4013C63.6531 12.3915 64.295 12.5139 64.892 12.7611C65.4891 13.0083 66.0285 13.375 66.4769 13.8382C67.3507 14.757 67.832 16.0294 67.832 17.4204C67.832 18.8115 67.3471 20.0898 66.4721 21.0132V21.0144Z" fill="#FCF0D8"/>
<path d="M75.397 3.04297H72.8477V24.561H75.397V3.04297Z" fill="#FCF0D8"/>
<path d="M89.0816 12.0865C87.8577 10.7566 86.1432 10.0234 84.2501 10.0234C82.26 10.0234 80.4485 10.7589 79.1502 12.0983C77.8518 13.4377 77.1223 15.3433 77.1211 17.4381C77.1211 21.7981 80.1032 24.8399 84.3778 24.8399C86.7912 24.8399 88.6582 24.135 90.2534 22.6194L90.361 22.5172L88.9751 20.7607L88.8451 20.8782C87.671 21.9732 86.1217 22.5835 84.5114 22.5853C83.2556 22.5853 82.1465 22.2011 81.3058 21.4762C80.4651 20.7513 79.9058 19.6622 79.7355 18.3616H90.9392L90.9557 18.2171C90.9871 17.9374 91.0025 17.6561 91.0019 17.3747V17.3747C90.9888 15.2998 90.3066 13.4177 89.0816 12.0865ZM79.7733 16.2609C79.9684 15.1142 80.4497 14.1461 81.1686 13.4564C81.9538 12.7033 83.0026 12.3062 84.204 12.3062C85.3308 12.3062 86.3217 12.6939 87.0702 13.4247C87.7797 14.1297 88.2444 15.1036 88.4016 16.2644L79.7733 16.2609Z" fill="#FCF0D8"/>
<path d="M21.8208 13.2633C20.7909 12.2811 19.4784 11.5198 17.9187 10.9993C17.5072 10.8618 17.0756 10.7408 16.6369 10.6386C17.2956 8.48858 17.4174 6.55237 17 4.88169C16.6525 3.52626 15.8736 2.31869 14.7792 1.43899C13.6848 0.55928 12.3335 0.0545537 10.9269 4.71502e-05C9.69919 -0.0432114 8.48533 0.26931 7.43325 0.899521C6.38118 1.52973 5.53632 2.45042 5.00165 3.54937C4.11363 5.38806 4.09353 7.42649 4.07461 9.23228V9.2734C4.06397 10.3578 4.0687 11.4575 4.08999 12.6359C2.86852 13.3479 1.97932 14.0986 1.30059 14.9833C0.22338 16.372 -0.212944 18.0357 0.09804 19.5489C0.362908 20.8413 1.16934 21.9058 2.25601 22.4027C2.92151 22.6932 3.65342 22.8003 4.37496 22.7129C4.14793 24.5927 3.33677 25.3235 3.17359 25.4539L3.11565 25.5009L5.11162 27L5.14709 26.9613C5.44138 26.6441 5.69808 26.2945 5.91214 25.9192C6.53056 24.8336 6.8581 23.5189 6.90303 22.0103C7.02837 21.9586 7.15489 21.9046 7.28023 21.8494C8.2072 22.6251 9.24284 23.2627 10.3546 23.7421C11.7154 24.3339 13.1572 24.7215 14.6327 24.8923C17.4552 25.213 20.1961 24.494 21.9639 22.9678C22.6007 22.4158 23.1133 21.7365 23.468 20.9743C23.8227 20.2121 24.0117 19.3841 24.0225 18.5444C24.038 17.5614 23.8506 16.5857 23.472 15.6774C23.0933 14.7691 22.5313 13.9475 21.8208 13.2633V13.2633ZM14.1704 10.2674C13.9942 10.2544 13.8156 10.2427 13.6383 10.2345C11.2134 10.137 8.79539 10.5515 6.54357 11.4505C6.54357 10.7162 6.54357 9.99243 6.54357 9.29808V9.25695C6.56012 7.63444 6.57667 5.95671 7.2282 4.61029C7.54714 3.96231 8.04271 3.41628 8.65854 3.03431C9.27437 2.65235 9.98573 2.44979 10.7117 2.44968H10.8441C11.7149 2.48694 12.5505 2.80102 13.2281 3.34566C13.9057 3.89029 14.3893 4.63671 14.6079 5.475C14.9378 6.7944 14.79 8.40634 14.1704 10.2674V10.2674ZM13.1712 12.67C12.435 14.1713 11.4707 15.5511 10.312 16.7609C9.29673 17.8178 8.10949 18.6972 6.80016 19.3621C6.72921 17.897 6.64171 15.9949 6.58968 14.0975C8.64468 13.1275 10.8963 12.6391 13.1712 12.67V12.67ZM14.9141 22.4579C12.9808 22.2382 11.1031 21.5592 9.61438 20.5452C10.5074 19.9354 11.3358 19.237 12.0869 18.461C13.6241 16.8528 14.8667 14.99 15.7584 12.9567C17.5995 13.3326 19.0692 14.0305 20.1133 15.0303C20.579 15.4774 20.9474 16.0146 21.1959 16.6087C21.4444 17.2028 21.5678 17.8412 21.5583 18.4845C21.5556 18.9838 21.4461 19.4768 21.2372 19.9309C21.0282 20.3851 20.7246 20.7899 20.3463 21.1186C18.8694 22.3945 16.5719 22.6471 14.9141 22.4579V22.4579ZM3.25045 16.4743C3.51898 16.1305 3.82692 15.819 4.16803 15.5461C4.22715 17.2086 4.30519 18.8452 4.37496 20.2386C3.91144 20.3197 3.55434 20.2997 3.28592 20.1763C2.92173 20.0107 2.61902 19.5724 2.51378 19.059C2.34824 18.253 2.62375 17.2873 3.25045 16.4743Z" fill="#FCF0D8"/>
</g>
<defs>
<clipPath id="clip0_1227_4160">
<rect width="91" height="27" fill="white"/>
</clipPath>
</defs>
</svg>
