<svg width="268" height="201" viewBox="0 0 268 201" fill="none" xmlns="http://www.w3.org/2000/svg">
<mask id="path-1-inside-1_27_372" fill="white">
<path d="M226.499 16.8148C209.443 9.12268 191.16 3.4372 172.041 0.204275C171.871 0.171588 171.695 0.192653 171.537 0.264556C171.379 0.336459 171.248 0.455644 171.161 0.605604C168.82 4.71922 166.211 10.0814 164.383 14.3177C144.106 11.288 123.491 11.288 103.214 14.3177C101.177 9.62279 98.8809 5.04501 96.3353 0.605604C96.249 0.453798 96.1185 0.331917 95.9611 0.256226C95.8038 0.180535 95.6271 0.154633 95.4546 0.181978C76.3469 3.4149 58.0642 9.10039 40.9966 16.8037C40.8498 16.8652 40.7253 16.9703 40.6398 17.1047C5.94725 68.1068 -3.562 117.849 1.10901 166.967C1.12201 167.088 1.15935 167.204 1.21876 167.309C1.27817 167.415 1.35841 167.507 1.4546 167.58C21.7038 182.323 44.289 193.553 68.2646 200.802C68.4317 200.853 68.6105 200.853 68.7776 200.801C68.9446 200.749 69.0922 200.649 69.201 200.512C74.3603 193.612 78.9321 186.292 82.8685 178.628C82.9231 178.523 82.9546 178.408 82.9608 178.29C82.967 178.172 82.9478 178.054 82.9045 177.944C82.8612 177.834 82.7947 177.735 82.7096 177.653C82.6246 177.571 82.5229 177.508 82.4114 177.469C75.2099 174.757 68.2321 171.484 61.5424 167.681C61.4222 167.612 61.3209 167.515 61.2476 167.397C61.1743 167.28 61.1313 167.146 61.1225 167.008C61.1136 166.87 61.1392 166.732 61.1969 166.606C61.2547 166.48 61.3427 166.371 61.4532 166.287C62.8578 165.251 64.2625 164.169 65.6002 163.088C65.7207 162.991 65.8657 162.929 66.0192 162.909C66.1728 162.889 66.3287 162.913 66.4698 162.976C110.248 182.641 157.66 182.641 200.926 162.976C201.067 162.909 201.225 162.882 201.381 162.9C201.536 162.918 201.684 162.979 201.807 163.077C203.144 164.169 204.538 165.251 205.954 166.287C206.065 166.369 206.155 166.477 206.214 166.602C206.274 166.726 206.302 166.864 206.295 167.002C206.288 167.14 206.248 167.274 206.176 167.393C206.105 167.511 206.006 167.61 205.887 167.681C199.22 171.516 192.286 174.76 185.007 177.458C184.895 177.498 184.793 177.562 184.708 177.645C184.623 177.728 184.556 177.829 184.513 177.939C184.47 178.05 184.451 178.169 184.457 178.288C184.463 178.406 184.495 178.523 184.549 178.628C188.563 186.287 193.156 193.578 198.206 200.501C198.311 200.643 198.457 200.749 198.625 200.805C198.792 200.861 198.973 200.863 199.142 200.813C223.159 193.585 245.781 182.349 266.053 167.58C266.151 167.511 266.234 167.422 266.296 167.318C266.358 167.214 266.396 167.098 266.409 166.978C271.983 110.191 257.067 60.8494 226.845 17.127C226.771 16.9849 226.648 16.8741 226.499 16.8148ZM89.4124 137.057C76.2355 137.057 65.3661 125.14 65.3661 110.525C65.3661 95.8988 76.0236 83.9927 89.4124 83.9927C102.901 83.9927 113.67 95.9991 113.459 110.525C113.459 125.151 102.801 137.057 89.4124 137.057ZM178.318 137.057C165.13 137.057 154.272 125.14 154.272 110.525C154.272 95.8988 164.918 83.9927 178.318 83.9927C191.807 83.9927 202.576 95.9991 202.364 110.525C202.364 125.151 191.818 137.057 178.318 137.057Z"/>
</mask>
<path d="M226.499 16.8148C209.443 9.12268 191.16 3.4372 172.041 0.204275C171.871 0.171588 171.695 0.192653 171.537 0.264556C171.379 0.336459 171.248 0.455644 171.161 0.605604C168.82 4.71922 166.211 10.0814 164.383 14.3177C144.106 11.288 123.491 11.288 103.214 14.3177C101.177 9.62279 98.8809 5.04501 96.3353 0.605604C96.249 0.453798 96.1185 0.331917 95.9611 0.256226C95.8038 0.180535 95.6271 0.154633 95.4546 0.181978C76.3469 3.4149 58.0642 9.10039 40.9966 16.8037C40.8498 16.8652 40.7253 16.9703 40.6398 17.1047C5.94725 68.1068 -3.562 117.849 1.10901 166.967C1.12201 167.088 1.15935 167.204 1.21876 167.309C1.27817 167.415 1.35841 167.507 1.4546 167.58C21.7038 182.323 44.289 193.553 68.2646 200.802C68.4317 200.853 68.6105 200.853 68.7776 200.801C68.9446 200.749 69.0922 200.649 69.201 200.512C74.3603 193.612 78.9321 186.292 82.8685 178.628C82.9231 178.523 82.9546 178.408 82.9608 178.29C82.967 178.172 82.9478 178.054 82.9045 177.944C82.8612 177.834 82.7947 177.735 82.7096 177.653C82.6246 177.571 82.5229 177.508 82.4114 177.469C75.2099 174.757 68.2321 171.484 61.5424 167.681C61.4222 167.612 61.3209 167.515 61.2476 167.397C61.1743 167.28 61.1313 167.146 61.1225 167.008C61.1136 166.87 61.1392 166.732 61.1969 166.606C61.2547 166.48 61.3427 166.371 61.4532 166.287C62.8578 165.251 64.2625 164.169 65.6002 163.088C65.7207 162.991 65.8657 162.929 66.0192 162.909C66.1728 162.889 66.3287 162.913 66.4698 162.976C110.248 182.641 157.66 182.641 200.926 162.976C201.067 162.909 201.225 162.882 201.381 162.9C201.536 162.918 201.684 162.979 201.807 163.077C203.144 164.169 204.538 165.251 205.954 166.287C206.065 166.369 206.155 166.477 206.214 166.602C206.274 166.726 206.302 166.864 206.295 167.002C206.288 167.14 206.248 167.274 206.176 167.393C206.105 167.511 206.006 167.61 205.887 167.681C199.22 171.516 192.286 174.76 185.007 177.458C184.895 177.498 184.793 177.562 184.708 177.645C184.623 177.728 184.556 177.829 184.513 177.939C184.47 178.05 184.451 178.169 184.457 178.288C184.463 178.406 184.495 178.523 184.549 178.628C188.563 186.287 193.156 193.578 198.206 200.501C198.311 200.643 198.457 200.749 198.625 200.805C198.792 200.861 198.973 200.863 199.142 200.813C223.159 193.585 245.781 182.349 266.053 167.58C266.151 167.511 266.234 167.422 266.296 167.318C266.358 167.214 266.396 167.098 266.409 166.978C271.983 110.191 257.067 60.8494 226.845 17.127C226.771 16.9849 226.648 16.8741 226.499 16.8148ZM89.4124 137.057C76.2355 137.057 65.3661 125.14 65.3661 110.525C65.3661 95.8988 76.0236 83.9927 89.4124 83.9927C102.901 83.9927 113.67 95.9991 113.459 110.525C113.459 125.151 102.801 137.057 89.4124 137.057ZM178.318 137.057C165.13 137.057 154.272 125.14 154.272 110.525C154.272 95.8988 164.918 83.9927 178.318 83.9927C191.807 83.9927 202.576 95.9991 202.364 110.525C202.364 125.151 191.818 137.057 178.318 137.057Z" fill="url(#paint0_linear_27_372)"/>
<path d="M226.499 16.8148L225.58 18.8529L225.626 18.8735L225.672 18.8919L226.499 16.8148ZM172.041 0.204275L171.62 2.4L171.644 2.40467L171.669 2.40879L172.041 0.204275ZM171.161 0.605604L169.227 -0.516935L169.222 -0.508621L169.218 -0.500265L171.161 0.605604ZM164.383 14.3177L164.052 16.5289L165.754 16.7831L166.436 15.2036L164.383 14.3177ZM103.214 14.3177L101.162 15.2073L101.846 16.7827L103.544 16.5289L103.214 14.3177ZM96.3353 0.605604L94.3915 1.71045L94.3957 1.71778L96.3353 0.605604ZM95.4546 0.181978L95.1045 -2.02625L95.093 -2.02444L95.0816 -2.0225L95.4546 0.181978ZM40.9966 16.8037L41.8614 18.8655L41.889 18.8539L41.9164 18.8415L40.9966 16.8037ZM40.6398 17.1047L42.4885 18.3622L42.5081 18.3334L42.5267 18.3041L40.6398 17.1047ZM1.10901 166.967L-1.11676 167.179L-1.1154 167.193L-1.11386 167.208L1.10901 166.967ZM1.4546 167.58L0.0981011 169.358L0.118199 169.373L0.138639 169.388L1.4546 167.58ZM68.2646 200.802L68.9225 198.665L68.9116 198.661L68.2646 200.802ZM69.201 200.512L70.951 201.903L70.9717 201.877L70.9916 201.851L69.201 200.512ZM82.8685 178.628L80.886 177.594L80.8797 177.607L82.8685 178.628ZM82.4114 177.469L81.6235 179.561L81.6455 179.569L81.6677 179.577L82.4114 177.469ZM61.5424 167.681L60.434 169.623L60.4374 169.624L61.5424 167.681ZM61.4532 166.287L60.1254 164.488L60.1158 164.495L60.1063 164.503L61.4532 166.287ZM65.6002 163.088L64.1955 161.348L64.1947 161.349L65.6002 163.088ZM66.4698 162.976L65.5493 165.014L65.5536 165.016L66.4698 162.976ZM200.926 162.976L201.851 165.012L201.87 165.003L201.889 164.994L200.926 162.976ZM201.807 163.077L203.221 161.345L203.21 161.336L203.199 161.327L201.807 163.077ZM205.954 166.287L204.633 168.091L204.633 168.091L205.954 166.287ZM205.887 167.681L207.002 169.619L207.015 169.611L207.029 169.603L205.887 167.681ZM185.007 177.458L185.77 179.559L185.777 179.557L185.784 179.554L185.007 177.458ZM184.549 178.628L182.564 179.657L182.569 179.666L184.549 178.628ZM198.206 200.501L196.399 201.818L196.408 201.829L198.206 200.501ZM199.142 200.813L199.783 202.955L199.787 202.954L199.142 200.813ZM266.053 167.58L264.771 165.748L264.754 165.761L264.736 165.773L266.053 167.58ZM266.409 166.978L268.632 167.222L268.633 167.21L268.634 167.197L266.409 166.978ZM226.845 17.127L224.863 18.1607L224.927 18.2839L225.006 18.3983L226.845 17.127ZM113.459 110.525L111.223 110.492L111.223 110.509V110.525H113.459ZM202.364 110.525L200.128 110.492L200.128 110.509V110.525H202.364ZM227.419 14.7767C210.193 7.00823 191.727 1.26547 172.414 -2.00024L171.669 2.40879C190.594 5.60893 208.693 11.2371 225.58 18.8529L227.419 14.7767ZM172.463 -1.99145C171.837 -2.11154 171.19 -2.03416 170.61 -1.76997L172.464 2.29908C172.2 2.41946 171.905 2.45472 171.62 2.4L172.463 -1.99145ZM170.61 -1.76997C170.03 -1.50579 169.547 -1.0679 169.227 -0.516935L173.094 1.72814C172.949 1.97918 172.728 2.17871 172.464 2.29908L170.61 -1.76997ZM169.218 -0.500265C166.829 3.6972 164.184 9.13482 162.33 13.4317L166.436 15.2036C168.238 11.028 170.811 5.74123 173.104 1.71147L169.218 -0.500265ZM164.713 12.1064C144.217 9.04404 123.379 9.04404 102.883 12.1064L103.544 16.5289C123.602 13.532 143.994 13.532 164.052 16.5289L164.713 12.1064ZM105.265 13.428C103.195 8.65692 100.862 4.00487 98.2749 -0.506574L94.3957 1.71778C96.9001 6.08515 99.1591 10.5886 101.162 15.2073L105.265 13.428ZM98.2791 -0.499235C97.968 -1.04647 97.4975 -1.48579 96.9303 -1.75861L94.992 2.27107C94.7395 2.14963 94.53 1.95407 94.3915 1.71044L98.2791 -0.499235ZM96.9303 -1.75861C96.3631 -2.03144 95.7262 -2.12482 95.1045 -2.02625L95.8047 2.3902C95.528 2.43409 95.2444 2.39251 94.992 2.27107L96.9303 -1.75861ZM95.0816 -2.0225C75.7801 1.24322 57.3139 6.98603 40.0768 14.7658L41.9164 18.8415C58.8145 11.2147 76.9138 5.58658 95.8276 2.38646L95.0816 -2.0225ZM40.1318 14.7419C39.5643 14.9799 39.0831 15.3858 38.753 15.9052L42.5267 18.3041C42.3674 18.5547 42.1352 18.7506 41.8614 18.8655L40.1318 14.7419ZM38.7912 15.8472C3.78736 67.3068 -5.83395 117.575 -1.11676 167.179L3.33478 166.756C-1.29005 118.123 8.10713 68.9068 42.4885 18.3622L38.7912 15.8472ZM-1.11386 167.208C-1.06828 167.629 -0.937323 168.038 -0.728971 168.407L3.16649 166.212C3.25602 166.37 3.3123 166.546 3.33189 166.727L-1.11386 167.208ZM-0.728971 168.407C-0.520622 168.777 -0.239227 169.1 0.0981011 169.358L2.8111 165.803C2.95606 165.914 3.07697 166.053 3.16649 166.212L-0.728971 168.407ZM0.138639 169.388C20.5905 184.278 43.4019 195.621 67.6176 202.942L68.9116 198.661C45.1761 191.486 22.817 180.368 2.77056 165.773L0.138639 169.388ZM67.6068 202.938C68.2036 203.122 68.842 203.122 69.4387 202.937L68.1165 198.665C68.379 198.584 68.6599 198.584 68.9224 198.665L67.6068 202.938ZM69.4387 202.937C70.0353 202.752 70.5623 202.392 70.951 201.903L67.4511 199.12C67.6221 198.905 67.854 198.747 68.1165 198.665L69.4387 202.937ZM70.9916 201.851C76.2257 194.851 80.8638 187.424 84.8573 179.65L80.8797 177.607C77.0004 185.159 72.4949 192.373 67.4105 199.173L70.9916 201.851ZM84.851 179.662C85.0537 179.273 85.1705 178.845 85.1936 178.408L80.7281 178.173C80.7387 177.971 80.7926 177.774 80.886 177.594L84.851 179.662ZM85.1936 178.408C85.2166 177.97 85.1453 177.532 84.9845 177.124L80.8245 178.764C80.7504 178.576 80.7175 178.374 80.7281 178.173L85.1936 178.408ZM84.9845 177.124C84.8237 176.716 84.5772 176.348 84.2615 176.043L81.1577 179.262C81.0122 179.122 80.8986 178.952 80.8245 178.764L84.9845 177.124ZM84.2615 176.043C83.946 175.739 83.5687 175.506 83.1552 175.36L81.6677 179.577C81.4771 179.51 81.3032 179.403 81.1577 179.262L84.2615 176.043ZM83.1994 175.376C76.1072 172.706 69.2355 169.483 62.6474 165.737L60.4374 169.624C67.2287 173.485 74.3125 176.808 81.6235 179.561L83.1994 175.376ZM62.6507 165.739C62.8519 165.854 63.0215 166.017 63.1442 166.214L59.3509 168.581C59.6202 169.013 59.9924 169.37 60.434 169.623L62.6507 165.739ZM63.1442 166.214C63.2669 166.41 63.3389 166.634 63.3537 166.865L58.8912 167.151C58.9237 167.658 59.0816 168.15 59.3509 168.581L63.1442 166.214ZM63.3537 166.865C63.3685 167.097 63.3257 167.328 63.229 167.538L59.1648 165.674C58.9528 166.136 58.8587 166.643 58.8912 167.151L63.3537 166.865ZM63.229 167.538C63.1325 167.749 62.9851 167.932 62.8 168.072L60.1063 164.503C59.7003 164.809 59.3768 165.212 59.1648 165.674L63.229 167.538ZM62.7809 168.086C64.2096 167.032 65.6403 165.93 67.0058 164.827L64.1947 161.349C62.8846 162.408 61.5061 163.469 60.1254 164.488L62.7809 168.086ZM67.005 164.827C66.8034 164.99 66.5606 165.094 66.3036 165.127L65.7349 160.691C65.1708 160.764 64.6379 160.991 64.1955 161.348L67.005 164.827ZM66.3036 165.127C66.0465 165.16 65.7854 165.121 65.5493 165.014L67.3903 160.939C66.8721 160.705 66.299 160.619 65.7349 160.691L66.3036 165.127ZM65.5536 165.016C109.911 184.941 157.994 184.946 201.851 165.012L200.001 160.941C157.327 180.337 110.585 180.342 67.3859 160.937L65.5536 165.016ZM201.889 164.994C201.652 165.107 201.388 165.151 201.128 165.122L201.634 160.679C201.062 160.614 200.483 160.711 199.963 160.959L201.889 164.994ZM201.128 165.122C200.867 165.092 200.62 164.99 200.414 164.826L203.199 161.327C202.748 160.969 202.206 160.744 201.634 160.679L201.128 165.122ZM200.392 164.808C201.759 165.925 203.184 167.03 204.633 168.091L207.275 164.483C205.892 163.471 204.53 162.414 203.221 161.345L200.392 164.808ZM204.633 168.091C204.446 167.955 204.296 167.774 204.197 167.565L208.232 165.638C208.013 165.18 207.684 164.783 207.274 164.483L204.633 168.091ZM204.197 167.565C204.097 167.356 204.051 167.126 204.062 166.895L208.528 167.109C208.553 166.602 208.451 166.097 208.232 165.638L204.197 167.565ZM204.062 166.895C204.073 166.664 204.141 166.439 204.26 166.241L208.092 168.545C208.354 168.11 208.504 167.617 208.528 167.109L204.062 166.895ZM204.26 166.241C204.379 166.042 204.546 165.877 204.745 165.759L207.029 169.603C207.465 169.344 207.831 168.98 208.092 168.545L204.26 166.241ZM204.772 165.743C198.215 169.515 191.394 172.706 184.23 175.361L185.784 179.554C193.178 176.814 200.225 173.517 207.002 169.619L204.772 165.743ZM184.244 175.356C183.833 175.505 183.459 175.74 183.146 176.045L186.27 179.245C186.127 179.384 185.957 179.491 185.77 179.559L184.244 175.356ZM183.146 176.045C182.833 176.351 182.589 176.719 182.43 177.126L186.596 178.753C186.523 178.938 186.412 179.106 186.27 179.245L183.146 176.045ZM182.43 177.126C182.271 177.533 182.201 177.969 182.224 178.406L186.69 178.17C186.7 178.368 186.668 178.567 186.596 178.753L182.43 177.126ZM182.224 178.406C182.247 178.842 182.363 179.269 182.564 179.657L186.535 177.6C186.626 177.776 186.679 177.971 186.69 178.17L182.224 178.406ZM182.569 179.666C186.637 187.429 191.289 194.813 196.4 201.818L200.012 199.183C195.022 192.342 190.488 185.145 186.53 177.59L182.569 179.666ZM196.408 201.829C196.786 202.342 197.313 202.724 197.918 202.926L199.332 198.684C199.601 198.773 199.835 198.944 200.004 199.172L196.408 201.829ZM197.918 202.926C198.522 203.127 199.173 203.137 199.783 202.955L198.501 198.671C198.773 198.589 199.063 198.594 199.332 198.684L197.918 202.926ZM199.787 202.954C224.045 195.653 246.894 184.305 267.369 169.388L264.736 165.773C244.668 180.394 222.273 191.516 198.498 198.672L199.787 202.954ZM267.334 169.413C267.693 169.161 267.996 168.836 268.219 168.458L264.373 166.178C264.473 166.008 264.609 165.861 264.771 165.748L267.334 169.413ZM268.219 168.458C268.443 168.08 268.584 167.659 268.632 167.222L264.187 166.735C264.208 166.538 264.272 166.348 264.373 166.178L268.219 168.458ZM268.634 167.197C274.264 109.84 259.183 59.9775 228.684 15.8556L225.006 18.3983C254.952 61.7214 269.702 110.541 264.184 166.76L268.634 167.197ZM228.828 16.0932C228.506 15.4762 227.973 14.9952 227.327 14.7377L225.672 18.8919C225.323 18.753 225.036 18.4936 224.863 18.1607L228.828 16.0932ZM89.4124 134.821C77.6682 134.821 67.6019 124.113 67.6019 110.525H63.1303C63.1303 126.167 74.8027 139.293 89.4124 139.293V134.821ZM67.6019 110.525C67.6019 96.9131 77.4679 86.2285 89.4124 86.2285V81.7569C74.5793 81.7569 63.1303 94.8844 63.1303 110.525H67.6019ZM89.4124 86.2285C101.474 86.2285 111.419 97.0256 111.223 110.492L115.694 110.558C115.921 94.9726 104.329 81.7569 89.4124 81.7569V86.2285ZM111.223 110.525C111.223 124.137 101.357 134.821 89.4124 134.821V139.293C104.245 139.293 115.694 126.165 115.694 110.525H111.223ZM178.318 134.821C166.563 134.821 156.507 124.114 156.507 110.525H152.036C152.036 126.166 163.696 139.293 178.318 139.293V134.821ZM156.507 110.525C156.507 96.9124 166.363 86.2285 178.318 86.2285V81.7569C163.473 81.7569 152.036 94.8851 152.036 110.525H156.507ZM178.318 86.2285C190.379 86.2285 200.325 97.0256 200.128 110.492L204.6 110.558C204.827 94.9726 193.235 81.7569 178.318 81.7569V86.2285ZM200.128 110.525C200.128 124.144 190.367 134.821 178.318 134.821V139.293C193.269 139.293 204.6 126.158 204.6 110.525H200.128Z" fill="white" fill-opacity="0.3" mask="url(#path-1-inside-1_27_372)"/>
<defs>
<linearGradient id="paint0_linear_27_372" x1="25.3447" y1="-0.0971742" x2="292.152" y2="226.838" gradientUnits="userSpaceOnUse">
<stop stop-color="white" stop-opacity="0.8"/>
<stop offset="1" stop-color="white" stop-opacity="0.2"/>
</linearGradient>
</defs>
</svg>
