<svg width="184" height="184" viewBox="0 0 184 184" fill="none" xmlns="http://www.w3.org/2000/svg">
<path fill-rule="evenodd" clip-rule="evenodd" d="M54.0579 0.595813C63.8661 0.144285 66.9934 0.0439453 91.9779 0.0439453C116.962 0.0439453 120.09 0.152646 129.89 0.595813C139.689 1.03898 146.379 2.6026 152.232 4.8686C158.361 7.18477 163.921 10.8054 168.52 15.4879C173.203 20.0784 176.815 25.6305 179.123 31.768C181.397 37.6211 182.952 44.3104 183.404 54.0935C183.855 63.9184 183.956 67.0457 183.956 92.0218C183.956 117.006 183.847 120.134 183.404 129.942C182.961 139.725 181.397 146.414 179.123 152.267C176.815 158.406 173.197 163.967 168.52 168.564C163.921 173.247 158.361 176.859 152.232 179.167C146.379 181.441 139.689 182.996 129.906 183.448C120.09 183.899 116.962 184 91.9779 184C66.9934 184 63.8661 183.891 54.0579 183.448C44.2748 183.005 37.5855 181.441 31.7324 179.167C25.5943 176.859 20.033 173.24 15.4356 168.564C10.7562 163.971 7.1351 158.412 4.82466 152.276C2.55866 146.423 1.0034 139.733 0.551867 129.95C0.100339 120.125 0 116.998 0 92.0218C0 67.0373 0.108701 63.9101 0.551867 54.1102C0.995033 44.3104 2.55866 37.6211 4.82466 31.768C7.13851 25.6312 10.7624 20.0727 15.4439 15.4795C20.0348 10.8012 25.5905 7.18012 31.724 4.8686C37.5772 2.6026 44.2665 1.04734 54.0496 0.595813H54.0579ZM129.145 17.1518C119.446 16.7087 116.536 16.6167 91.9779 16.6167C67.4198 16.6167 64.5099 16.7087 54.8105 17.1518C45.8384 17.5616 40.972 19.0583 37.7277 20.3209C33.4381 21.9932 30.3694 23.9749 27.1502 27.1941C24.0986 30.163 21.7501 33.7771 20.2769 37.7716C19.0143 41.0159 17.5176 45.8824 17.1079 54.8544C16.6647 64.5539 16.5727 67.4637 16.5727 92.0218C16.5727 116.58 16.6647 119.49 17.1079 129.189C17.5176 138.161 19.0143 143.028 20.2769 146.272C21.7486 150.261 24.0982 153.881 27.1502 156.85C30.1186 159.902 33.7392 162.251 37.7277 163.723C40.972 164.985 45.8384 166.482 54.8105 166.892C64.5099 167.335 67.4114 167.427 91.9779 167.427C116.544 167.427 119.446 167.335 129.145 166.892C138.117 166.482 142.984 164.985 146.228 163.723C150.518 162.05 153.586 160.069 156.806 156.85C159.858 153.881 162.207 150.261 163.679 146.272C164.941 143.028 166.438 138.161 166.848 129.189C167.291 119.49 167.383 116.58 167.383 92.0218C167.383 67.4637 167.291 64.5539 166.848 54.8544C166.438 45.8824 164.941 41.0159 163.679 37.7716C162.007 33.4821 160.025 30.4134 156.806 27.1941C153.837 24.1427 150.223 21.7943 146.228 20.3209C142.984 19.0583 138.117 17.5616 129.145 17.1518V17.1518ZM80.2298 120.376C86.7908 123.107 94.0965 123.476 100.899 121.419C107.702 119.362 113.579 115.007 117.528 109.098C121.476 103.189 123.251 96.0929 122.548 89.0209C121.846 81.9489 118.71 75.3402 113.676 70.3234C110.467 67.1165 106.587 64.661 102.316 63.1336C98.0439 61.6063 93.4866 61.045 88.9718 61.4903C84.4571 61.9356 80.0973 63.3764 76.2062 65.7089C72.3152 68.0414 68.9896 71.2076 66.4691 74.9796C63.9486 78.7516 62.2957 83.0355 61.6295 87.523C60.9633 92.0104 61.3004 96.5897 62.6164 100.931C63.9324 105.273 66.1947 109.269 69.2403 112.631C72.2859 115.993 76.0392 118.638 80.2298 120.376ZM58.5481 58.5921C62.9382 54.202 68.1499 50.7196 73.8858 48.3437C79.6217 45.9678 85.7694 44.745 91.9779 44.745C98.1864 44.745 104.334 45.9678 110.07 48.3437C115.806 50.7196 121.018 54.202 125.408 58.5921C129.798 62.9821 133.28 68.1939 135.656 73.9298C138.032 79.6657 139.255 85.8134 139.255 92.0218C139.255 98.2303 138.032 104.378 135.656 110.114C133.28 115.85 129.798 121.062 125.408 125.452C116.542 134.318 104.516 139.299 91.9779 139.299C79.4393 139.299 67.4142 134.318 58.5481 125.452C49.682 116.585 44.701 104.56 44.701 92.0218C44.701 79.4832 49.682 67.4582 58.5481 58.5921V58.5921ZM149.74 51.7857C150.828 50.7595 151.699 49.5254 152.301 48.1565C152.904 46.7877 153.225 45.3119 153.247 43.8165C153.269 42.3211 152.99 40.8365 152.428 39.4507C151.866 38.0649 151.031 36.8059 149.974 35.7484C148.916 34.6909 147.657 33.8563 146.272 33.2941C144.886 32.7319 143.401 32.4534 141.906 32.4752C140.41 32.497 138.935 32.8186 137.566 33.421C136.197 34.0234 134.963 34.8943 133.937 35.9822C131.941 38.098 130.848 40.9082 130.89 43.8165C130.933 46.7247 132.107 49.502 134.164 51.5586C136.22 53.6153 138.997 54.7894 141.906 54.8318C144.814 54.8742 147.624 53.7815 149.74 51.7857V51.7857Z" fill="url(#paint0_linear_27_369)"/>
<path d="M129.855 182.331C120.064 182.781 116.958 182.882 91.9779 182.882C66.9991 182.882 63.8915 182.773 54.1084 182.331C44.4326 181.893 37.8646 180.35 32.1373 178.125L32.1258 178.12C26.1398 175.869 20.7162 172.341 16.2327 167.78L16.2258 167.773L16.2187 167.766C11.6554 163.287 8.12402 157.866 5.87091 151.882L5.86717 151.872C3.64979 146.145 2.11523 139.576 1.66858 129.899C1.21826 120.1 1.11791 116.993 1.11791 92.0218C1.11791 67.0431 1.2266 63.9354 1.66863 54.1607C2.10695 44.4681 3.64959 37.8996 5.86717 32.1716L5.86721 32.1716L5.87068 32.1624C8.1272 26.1777 11.6613 20.7568 16.2268 16.2775L16.2344 16.2701L16.2418 16.2625C20.7189 11.7002 26.1368 8.16889 32.1182 5.91469L32.1183 5.91473L32.1276 5.91111C37.8501 3.6957 44.4122 2.16189 54.0754 1.71372L183.404 54.0935L182.287 54.1448C182.738 63.9437 182.838 67.0506 182.838 92.0218C182.838 117.001 182.729 120.108 182.287 129.891C181.849 139.567 180.306 146.135 178.081 151.862L178.076 151.874C175.826 157.86 172.297 163.284 167.737 167.767L167.73 167.774L167.723 167.781C163.238 172.347 157.816 175.87 151.838 178.12L151.827 178.125C146.1 180.35 139.532 181.884 129.855 182.331ZM129.855 182.331L129.906 183.448M129.855 182.331C129.855 182.331 129.855 182.331 129.855 182.331L129.906 183.448M129.906 183.448C139.689 182.996 146.379 181.441 152.232 179.167C158.361 176.859 163.921 173.247 168.52 168.564C173.197 163.967 176.815 158.406 179.123 152.267L129.906 183.448ZM37.3222 19.2791L37.3216 19.2793C32.8946 21.0053 29.695 23.0696 26.3652 26.3982C23.199 29.48 20.7618 33.2305 19.2315 37.3754C17.9262 40.7314 16.4061 45.7167 15.9911 54.8034C15.5468 64.5289 15.4548 67.4591 15.4548 92.0218C15.4548 116.585 15.5468 119.515 15.9911 129.24C16.4061 138.327 17.9263 143.312 19.2316 146.668C20.7593 150.804 23.1956 154.559 26.3597 157.64C29.4404 160.804 33.1955 163.241 37.3317 164.768C40.6877 166.074 45.6729 167.594 54.7595 168.009C64.4849 168.453 67.4068 168.545 91.9779 168.545C116.549 168.545 119.471 168.453 129.196 168.009C138.291 167.593 143.277 166.071 146.634 164.765L146.634 164.764C151.061 163.038 154.261 160.974 157.591 157.645C160.758 154.563 163.196 150.806 164.724 146.668C166.03 143.312 167.55 138.327 167.965 129.24C168.409 119.515 168.501 116.585 168.501 92.0218C168.501 67.4591 168.409 64.5289 167.965 54.8034C167.549 45.7083 166.027 40.7223 164.721 37.3662L164.72 37.3655C162.994 32.9385 160.93 29.7388 157.601 26.4089C154.519 23.2431 150.769 20.8059 146.624 19.2755C143.268 17.9702 138.283 16.45 129.196 16.0351C119.471 15.5907 116.541 15.4988 91.9779 15.4988C67.4152 15.4988 64.4849 15.5907 54.7594 16.0351C45.6644 16.4504 40.6783 17.973 37.3222 19.2791ZM79.8002 121.408C86.6003 124.239 94.1722 124.621 101.223 122.489C108.273 120.357 114.365 115.844 118.457 109.719C122.55 103.595 124.389 96.2401 123.661 88.9104C122.933 81.5807 119.683 74.7312 114.465 69.5316C111.14 66.2084 107.119 63.6638 102.692 62.081C98.2646 60.498 93.5413 59.9163 88.8621 60.3778C84.1829 60.8393 79.6643 62.3326 75.6315 64.7501C71.5986 67.1675 68.152 70.4491 65.5396 74.3585C62.9273 78.2679 61.2142 82.7079 60.5237 87.3588C59.8332 92.0097 60.1826 96.7559 61.5465 101.256C62.9105 105.755 65.2552 109.897 68.4118 113.381C71.568 116.866 75.4575 119.607 79.8002 121.408ZM59.3386 59.3825C63.6248 55.0963 68.7134 51.6962 74.3136 49.3765C79.9139 47.0568 85.9162 45.8629 91.9779 45.8629C98.0396 45.8629 104.042 47.0568 109.642 49.3765C115.242 51.6962 120.331 55.0963 124.617 59.3825C128.903 63.6688 132.303 68.7573 134.623 74.3576C136.943 79.9578 138.137 85.9602 138.137 92.0218C138.137 98.0835 136.943 104.086 134.623 109.686C132.303 115.286 128.903 120.375 124.617 124.661C115.961 133.318 104.22 138.181 91.9779 138.181C79.7358 138.181 67.9951 133.318 59.3386 124.661C50.6821 116.005 45.8189 104.264 45.8189 92.0218C45.8189 79.7797 50.6821 68.039 59.3386 59.3825ZM151.278 47.7062C150.736 48.9382 149.952 50.0489 148.973 50.9725C147.069 52.7688 144.539 53.7522 141.922 53.714C139.305 53.6759 136.805 52.6191 134.954 50.7681C133.103 48.9171 132.046 46.4176 132.008 43.8002C131.97 41.1827 132.953 38.6535 134.75 36.7493C135.673 35.7702 136.784 34.9864 138.016 34.4442C139.248 33.9021 140.576 33.6126 141.922 33.593C143.268 33.5734 144.604 33.824 145.851 34.33C147.099 34.836 148.232 35.5871 149.183 36.5389C150.135 37.4907 150.886 38.6237 151.392 39.871C151.898 41.1182 152.149 42.4543 152.129 43.8002C152.11 45.146 151.82 46.4743 151.278 47.7062Z" stroke="white" stroke-opacity="0.3" stroke-width="2.23581"/>
<defs>
<linearGradient id="paint0_linear_27_369" x1="17.4252" y1="-0.202238" x2="242.125" y2="143.143" gradientUnits="userSpaceOnUse">
<stop stop-color="white" stop-opacity="0.8"/>
<stop offset="1" stop-color="white" stop-opacity="0.2"/>
</linearGradient>
</defs>
</svg>
