<svg id="Layer_1" data-name="Layer 1" xmlns="http://www.w3.org/2000/svg" viewBox="0 0 694.2213 214.4255">
  <title>liveart-logo-full-color-rgb</title>
  <g>
    <g id="logoMark">
      <rect id="logoMark_PathItem_" data-name="logoMark &lt;PathItem&gt;" width="214.4255" height="214.4255" style="fill: #141414"/>
      <polygon id="logoMark_PathItem_2" data-name="logoMark &lt;PathItem&gt;" points="35.238 153.298 35.238 52.348 85.708 153.298 136.188 52.348 186.658 153.298 35.238 153.298" style="fill: #fff"/>
    </g>
    <g id="type">
      <path id="type_CompoundPathItem_" data-name="type &lt;CompoundPathItem&gt;" d="M282.2021,137.6929V57.0411H264.9005v96.2531h55.6339V137.6929Z" style="fill: #141414"/>
      <path id="type_CompoundPathItem_2" data-name="type &lt;CompoundPathItem&gt;" d="M338.4825,55.0325a10.386,10.386,0,1,0,10.4009,10.391A10.38,10.38,0,0,0,338.4825,55.0325ZM330.17,83.7v69.5946h16.6056V83.7Z" style="fill: #141414"/>
      <path id="type_CompoundPathItem_3" data-name="type &lt;CompoundPathItem&gt;" d="M411.6765,83.7l-20.205,41.4248L371.2662,83.7H353.9746l37.4969,74.02L428.8393,83.7Z" style="fill: #141414"/>
      <path id="type_CompoundPathItem_4" data-name="type &lt;CompoundPathItem&gt;" d="M499.6965,116.8414c0-9.9435-3.1821-18.2365-9.6847-24.998-6.3638-6.7715-14.6667-10.0828-24.7695-10.0828-10.66,0-19.37,3.3113-26.2905,10.0828C432.17,98.6049,428.71,107.4448,428.71,118.4919v.5569c0,10.908,3.46,19.6086,10.2417,26.1017,6.7813,6.4832,15.77,9.8044,26.7081,9.8044,11.7632,0,21.448-4.1466,29.3334-12.4294L485.03,132.86a25.7158,25.7158,0,0,1-18.8227,8.0044c-12.3105,0-20.474-7.1792-21.0309-18.2263H499.428C499.5577,120.8387,499.6965,118.91,499.6965,116.8414Zm-54.1028-5.8071a15.1354,15.1354,0,0,1,6.2249-10.7687,21.515,21.515,0,0,1,13.4237-4.415,17.9214,17.9214,0,0,1,12.32,4.5541,13.5275,13.5275,0,0,1,5.26,10.63Z" style="fill: #141414"/>
      <path id="type_CompoundPathItem_5" data-name="type &lt;CompoundPathItem&gt;" d="M550.0006,52.3478,502.262,153.2942h18.2664L529.1,134.65h41.5239l8.5714,18.6441H597.6Zm-14.388,67.387L549.8617,88.393l14.2491,31.3418Z" style="fill: #141414"/>
      <path id="type_CompoundPathItem_6" data-name="type &lt;CompoundPathItem&gt;" d="M606.649,83.7v69.5946h16.4665V83.7Z" style="fill: #141414"/>
      <path id="type_CompoundPathItem_7" data-name="type &lt;CompoundPathItem&gt;" d="M694.2213,98.7442V83.7H678.8589V57.0411H662.253V83.7h-8.7205V98.7442h8.7205v32.8732c0,15.74,7.4775,23.6159,22.5618,23.6159a37.9832,37.9832,0,0,0,8.5714-.8353V139.6219a25.6383,25.6383,0,0,1-5.8069.5569c-6.0855,0-8.72-2.7644-8.72-10.3611V98.7442Z" style="fill: #141414"/>
      <polygon id="type_PathItem_" data-name="type &lt;PathItem&gt;" points="637.927 82.642 625.513 98.747 650.341 98.747 637.927 82.642" style="fill: #141414"/>
    </g>
  </g>
</svg>
