<svg width="191" height="155" viewBox="0 0 191 155" fill="none" xmlns="http://www.w3.org/2000/svg">
<path d="M190.419 18.3143C183.437 21.4081 175.937 23.4985 168.052 24.4434C176.188 19.5752 182.274 11.9132 185.176 2.88708C177.533 7.42736 169.167 10.6232 160.443 12.3357C154.576 6.07173 146.805 1.91986 138.337 0.524705C129.869 -0.870451 121.177 0.569168 113.611 4.62005C106.045 8.67094 100.028 15.1064 96.4943 22.9274C92.9605 30.7484 92.1076 39.5173 94.0681 47.8726C78.5798 47.095 63.428 43.0693 49.5962 36.0569C35.7644 29.0444 23.5616 19.202 13.7798 7.16824C10.4351 12.9378 8.51197 19.6271 8.51197 26.7512C8.50823 33.1645 10.0876 39.4796 13.1098 45.1361C16.1321 50.7927 20.5039 55.6158 25.8373 59.1776C19.652 58.9807 13.6031 57.3094 8.19422 54.3027V54.8044C8.1936 63.7994 11.305 72.5175 17.0005 79.4796C22.6961 86.4416 30.6249 91.2187 39.4416 93.0003C33.7037 94.5532 27.688 94.782 21.8488 93.6693C24.3363 101.409 29.1819 108.177 35.7071 113.026C42.2322 117.875 50.1104 120.562 58.2386 120.711C44.4405 131.543 27.3999 137.418 9.85819 137.392C6.75085 137.393 3.64614 137.212 0.560059 136.849C18.3659 148.297 39.0933 154.373 60.2621 154.35C131.921 154.35 171.095 94.9988 171.095 43.5246C171.095 41.8523 171.054 40.1632 170.978 38.4909C178.598 32.9804 185.176 26.1566 190.402 18.3394L190.419 18.3143Z" fill="url(#paint0_linear_27_377)"/>
<path d="M168.185 25.5533L167.478 23.4841C174.52 19.2705 179.981 12.9024 183.082 5.36217C176.064 9.16964 168.504 11.8926 160.658 13.4327L160.05 13.552L159.627 13.0999C153.928 7.01563 146.381 2.98287 138.156 1.62774C129.93 0.272612 121.488 1.67093 114.139 5.60559C106.79 9.54026 100.945 15.7911 97.513 23.3877C94.0806 30.9843 93.2522 39.5016 95.1565 47.6173L95.4959 49.0636L94.0121 48.9891C78.3672 48.2036 63.0623 44.1372 49.0907 37.0539C35.6105 30.2198 23.6621 20.7246 13.964 9.14781C11.1994 14.4193 9.62987 20.4072 9.62987 26.7512V26.7518C9.62625 32.9811 11.1603 39.1151 14.0958 44.6093C17.0314 50.1036 21.2777 54.7883 26.4581 58.2479L29.7095 60.4192L25.8017 60.2949C20.0736 60.1126 14.4592 58.7011 9.33648 56.1648C9.63256 64.4173 12.6213 72.361 17.8658 78.7717C23.3979 85.534 31.0993 90.1741 39.663 91.9046L39.7337 94.0794C34.4479 95.5099 28.9329 95.8479 23.5244 95.0805C26.0786 101.866 30.5336 107.789 36.3738 112.129C42.7118 116.838 50.364 119.448 58.2591 119.593L61.3995 119.651L58.9289 121.59C44.9337 132.577 27.6498 138.536 9.85752 138.51M168.185 25.5533L3.0655 137.103C5.32418 137.296 7.59049 137.393 9.85819 137.392L9.85654 138.51C9.85687 138.51 9.85719 138.51 9.85752 138.51M168.185 25.5533C174.848 24.7548 181.243 23.1493 187.288 20.8197M168.185 25.5533L187.288 20.8197M9.85752 138.51C8.30095 138.511 6.74504 138.466 5.19173 138.376C21.8802 148.112 40.8837 153.253 60.2608 153.232H60.2621C131.175 153.232 169.978 94.518 169.978 43.5246C169.978 41.8707 169.936 40.1985 169.862 38.5411L169.835 37.9385L170.323 37.585C176.81 32.8942 182.53 27.2381 187.288 20.8197M9.85752 138.51L187.288 20.8197" stroke="white" stroke-opacity="0.3" stroke-width="2.23581"/>
<defs>
<linearGradient id="paint0_linear_27_377" x1="18.5445" y1="-0.200206" x2="220.481" y2="158.267" gradientUnits="userSpaceOnUse">
<stop stop-color="white" stop-opacity="0.8"/>
<stop offset="1" stop-color="white" stop-opacity="0.2"/>
</linearGradient>
</defs>
</svg>
